# AST/ASF file generated using VICON BodyLanguage
# -----------------------------------------------
:version 1.10
:name VICON
:units
  mass 1.0
  length 0.45
  angle deg
:documentation
   .ast/.asf automatically generated from VICON data using
   VICON BodyBuilder and BodyLanguage model FoxedUp or BRILLIANT.MOD
:root
   order TX TY TZ RX RY RZ
   axis XYZ
   position 0 0 0  
   orientation 0 -0 0 
:bonedata
  begin
     id 1 
     name lhipjoint
     direction 0.500677 -0.737119 0.453848 
     length 2.34727 
     axis 0 -0 0  XYZ
  end
  begin
     id 2 
     name lfemur
     direction 0.34202 -0.939693 0  
     length 7.53653  
     axis 0 -0 20  XYZ
    dof rx ry rz
    limits (-160.0 20.0)
           (-70.0 70.0)
           (-60.0 70.0)
  end
  begin
     id 3 
     name ltibia
     direction 0.34202 -0.939693 0   
     length 6.85572   
     axis 0 -0 20   XYZ
    dof rx
    limits (-10.0 170.0)
  end
  begin
     id 4 
     name lfoot
     direction 0.155313 -0.426718 0.890949   
     length 2.18324   
     axis -90 -1.13533e-015 20   XYZ
    dof rx rz
    limits (-45.0 90.0)
           (-70.0 20.0)
  end
  begin
     id 5 
     name ltoes
     direction 1.53474e-011 -4.21647e-011 1   
     length 1.06748   
     axis -90 -1.13533e-015 20   XYZ
    dof rx
    limits (-90.0 20.0)
  end
  begin
     id 6 
     name rhipjoint
     direction -0.632471 -0.659587 0.406111   
     length 2.62319  
     axis 0 -0 0  XYZ 
  end
  begin
     id 7 
     name rfemur
     direction -0.34202 -0.939693 0   
     length 7.21735   
     axis 0 -0 -20   XYZ
    dof rx ry rz
    limits (-160.0 20.0)
           (-70.0 70.0)
           (-70.0 60.0)
  end
  begin
     id 8 
     name rtibia
     direction -0.34202 -0.939693 0   
     length 7.02558   
     axis 0 -0 -20   XYZ
    dof rx
    limits (-10.0 170.0)
 end
 begin
     id 9 
     name rfoot
     direction -0.16057 -0.441164 0.882945   
     length 2.10014  
     axis -90 1.13533e-015 -20   XYZ
    dof rx rz
    limits (-45.0 90.0)
           (-20.0 70.0)
  end
  begin
     id 10 
     name rtoes
     direction -1.53553e-011 -4.2192e-011 1   
     length 1.02554   
     axis -90 1.13533e-015 -20   XYZ
    dof rx
    limits (-90.0 20.0)
  end
  begin
     id 11 
     name lowerback
     direction 0.0401429 0.998861 -0.0258085   
     length 1.80848   
     axis 0 -0 0   XYZ
    dof rx ry rz
    limits (-20.0 45.0)
           (-30.0 30.0)
           (-30.0 30.0)
  end
  begin
     id 12 
     name upperback
     direction -0.0130978 0.999914 -0.000352645   
     length 1.8116   
     axis 0 -0 0   XYZ
    dof rx ry rz
    limits (-20.0 45.0)
           (-30.0 30.0)
           (-30.0 30.0)
  end
  begin
     id 13 
     name thorax
     direction -0.0300198 0.999453 0.0138573   
     length 1.81778   
     axis 0 -0 0   XYZ
    dof rx ry rz
    limits (-20.0 45.0)
           (-30.0 30.0)
           (-30.0 30.0)
  end
  begin
     id 14 
     name lowerneck
     direction -0.0401726 0.999191 -0.00173647   
     length 2.10594   
     axis 0 -0 0   XYZ
    dof rx ry rz
    limits (-20.0 45.0)
           (-30.0 30.0)
           (-30.0 30.0)
  end
  begin
     id 15 
     name upperneck
     direction 0.0119835 0.998501 0.0534085   
     length 2.07325   
     axis 0 -0 0   XYZ
    dof rx ry rz
    limits (-20.0 45.0)
           (-30.0 30.0)
           (-30.0 30.0)
  end
  begin
     id 16
     name head
     direction 0.00628309 0.999826 0.0175921  
     length 2.15096  
     axis 0 -0 0   XYZ
    dof rx ry rz
    limits (-20.0 45.0)
           (-30.0 30.0)
           (-30.0 30.0)
  end
  begin
     id 17 
     name lclavicle
     direction 0.895501 0.429681 -0.115981  
     length 4.18092  
     axis 0 -0 0   XYZ
    dof ry rz
    limits (-20.0 10.0)
           (0.0 20.0)
  end
  begin
     id 18 
     name lhumerus
     direction 1 -4.48961e-011 -3.38433e-028   
     length 5.77237   
     axis 180 -30 -90   XYZ
    dof rx ry rz
    limits (-60.0 90.0)
           (-90.0 90.0)
           (-90.0 90.0)
  end
  begin
     id 19
     name lradius
     direction 1 -4.4901e-011 1.11983e-026   
     length 2.91878   
     axis 180 -30 -90   XYZ
    dof rx
    limits (-10.0 170.0)
  end
  begin
     id 20
     name lwrist
     direction 1 -4.48934e-011 1.88176e-026   
     length 1.45939   
     axis -1.23311e-014 90 90   XYZ
    dof ry
    limits (-180.0 0.0)
 end
  begin
     id 21 
     name lhand
     direction 1 -4.4895e-011 3.76352e-026   
     length 1.06566   
     axis -2.40147e-014 90 90   XYZ
    dof rx rz
    limits (-90.0 90.0)
           (-45.0 45.0)
  end
  begin
     id 22 
     name lfingers
     direction 1 -4.49005e-011 7.52705e-026   
     length 0.859162   
     axis -4.80295e-014 90 90   XYZ
    dof rx
    limits (0.0 90.0)
  end
  begin
     id 23
     name lthumb
     direction 0.707107 -6.34885e-011 0.707107   
     length 1.23359   
     axis -90 45 -9.86935e-015   XYZ
    dof rx rz
    limits (-45.0 45.0)
           (-45.0 45.0)
  end
  begin
     id 24 
     name rclavicle
     direction -0.91006 0.40451 -0.0903492   
     length 4.23293  
     axis 0 -0 0   XYZ 
    dof ry rz
    limits (-10.0 20.0)
           (-20.0 0.0)
  end
  begin
     id 25 
     name rhumerus
     direction -1 -4.4897e-011 1.7415e-027  
     length 5.49854   
     axis 180 30 90   XYZ
    dof rx ry rz
    limits (-90.0 60.0)
           (-90.0 90.0)
           (-90.0 90.0)
  end
  begin
     id 26 
     name rradius
     direction -1 -4.48963e-011 1.21259e-026   
     length 3.1186   
     axis 180 30 90   XYZ
    dof rx
    limits (-10.0 170.0)
  end
  begin
     id 27 
     name rwrist
     direction -1 -4.48967e-011 1.88176e-026   
     length 1.5593   
     axis -1.23311e-014 -90 -90   XYZ
    dof ry
    limits (-180.0 0.0)
  end
  begin
     id 28
     name rhand
     direction -1 -4.4895e-011 3.76352e-026   
     length 0.71207   
     axis -2.40147e-014 -90 -90   XYZ
    dof rx rz
    limits (-90.0 90.0)
           (-45.0 45.0)
  end
  begin
     id 29
     name rfingers
     direction -1 -4.49005e-011 7.52705e-026   
     length 0.574089   
     axis -4.80295e-014 -90 -90   XYZ
    dof rx
    limits (0.0 90.0)
  end
  begin
     id 30
     name rthumb
     direction -0.707107 -6.34982e-011 0.707107   
     length 0.824281   
     axis -90 -45 9.86935e-015   XYZ
    dof rx rz
    limits (-45.0 45.0)
           (-45.0 45.0)
  end
:hierarchy
  begin
    root lhipjoint rhipjoint lowerback
    lhipjoint lfemur
    lfemur ltibia
    ltibia lfoot
    lfoot ltoes
    rhipjoint rfemur
    rfemur rtibia
    rtibia rfoot
    rfoot rtoes
    lowerback upperback
    upperback thorax
    thorax lowerneck lclavicle rclavicle
    lowerneck upperneck
    upperneck head
    lclavicle lhumerus
    lhumerus lradius
    lradius lwrist
    lwrist lhand lthumb
    lhand lfingers
    rclavicle rhumerus
    rhumerus rradius
    rradius rwrist
    rwrist rhand rthumb
    rhand rfingers
  end

#!OML:ASF C:\ViconDB\ViconDB\414\Spring2016\042216\male.ASF
:FULLY-SPECIFIED
:DEGREES
219
root -44.3693 17.0037 13.3259 -166.284 83.3338 -168.424
lowerback -1.72454 -1.49135 4.9608
upperback 0.330132 -2.08767 -0.765567
thorax 1.10139 -1.00826 -3.62133
lowerneck -2.25986 7.06475 -0.558426
upperneck 2.05036 9.54946 -3.21438
head 1.14366 4.7305 -0.730065
rclavicle 3.67006e-014 3.18055e-015
rhumerus -27.5442 -3.95261 -93.6934
rradius 26.8904
rwrist 17.1116
rhand 4.56404 -24.2517
rfingers 7.12502
rthumb 29.9541 -51.8472
lclavicle 3.67006e-014 3.18055e-015
lhumerus -36.1085 15.4428 86.0062
lradius 34.1155
lwrist -8.53371
lhand -14.5514 15.1549
lfingers 7.12502
lthumb 11.5974 44.814
rfemur -9.96771 3.00257 20.5944
rtibia 27.6677
rfoot -25.4726 -4.7907
rtoes -10.8182
lfemur -10.564 -5.75304 -19.5748
ltibia 30.128
lfoot -34.7747 10.9472
ltoes -13.6495
220
root -44.3423 17.0048 13.3136 -166.962 83.1421 -169.195
lowerback -1.80398 -1.50468 4.92814
upperback 0.395402 -2.11003 -0.806055
thorax 1.21064 -1.01534 -3.64909
lowerneck -2.28589 7.04693 -0.431893
upperneck 1.98944 9.52143 -3.28019
head 1.13872 4.717 -0.770859
rclavicle -1.80708e-014 -3.37934e-015
rhumerus -26.9004 -3.93744 -93.7256
rradius 27.2182
rwrist 16.2441
rhand 4.16956 -24.3071
rfingers 7.12502
rthumb 29.5776 -51.9701
lclavicle -1.80708e-014 -3.37934e-015
lhumerus -36.1262 15.3853 85.8753
lradius 34.0115
lwrist -8.40083
lhand -14.6727 15.4891
lfingers 7.12502
lthumb 11.4804 45.1547
rfemur -9.92485 3.10263 20.5564
rtibia 27.7117
rfoot -25.8297 -4.7472
rtoes -10.9971
lfemur -10.5353 -5.95895 -19.6805
ltibia 30.0925
lfoot -35.0083 10.9537
ltoes -13.6359
221
root -44.3054 16.9943 13.3289 -167.517 83.1519 -169.454
lowerback -1.53848 -1.51882 4.49712
upperback 0.549187 -2.10964 -0.766727
thorax 1.23645 -1.01495 -3.36081
lowerneck -2.25019 7.05787 -0.285198
upperneck 1.92891 9.53192 -3.38646
head 1.12739 4.7231 -0.828798
rclavicle -3.62161e-015 -4.57205e-015
rhumerus -26.1445 -4.74982 -93.645
rradius 27.4019
rwrist 15.9487
rhand 3.31409 -25.2743
rfingers 7.12502
rthumb 28.7607 -53.0789
lclavicle -3.62161e-015 -4.57205e-015
lhumerus -36.2725 15.5889 85.5556
lradius 33.886
lwrist -8.28141
lhand -15.0112 15.6452
lfingers 7.12502
lthumb 11.154 45.3288
rfemur -9.37547 3.85951 20.7198
rtibia 27.7615
rfoot -26.2677 -5.20002
rtoes -10.8068
lfemur -9.99651 -5.70064 -19.6654
ltibia 30.0507
lfoot -35.3989 10.7525
ltoes -13.7038
222
root -44.3134 17.0223 13.2534 -166.793 83.5577 -169.863
lowerback -1.93552 -1.35909 5.49829
upperback 0.131821 -1.928 -0.998926
thorax 1.006 -0.931722 -4.16501
lowerneck -2.17663 7.1251 -0.491661
upperneck 1.7864 9.6171 -3.24155
head 1.05243 4.76879 -0.756327
rclavicle -8.4235e-015 5.36719e-015
rhumerus -25.4869 -4.55706 -93.7083
rradius 27.958
rwrist 15.1137
rhand 2.48185 -25.7634
rfingers 7.12502
rthumb 27.9653 -53.7004
lclavicle -8.4235e-015 5.36719e-015
lhumerus -36.4763 16.0361 85.1923
lradius 33.7076
lwrist -8.41996
lhand -15.0626 15.7064
lfingers 7.12502
lthumb 11.1044 45.3926
rfemur -10.8791 0.628046 19.8546
rtibia 27.7836
rfoot -26.342 -1.22808
rtoes -10.8796
lfemur -11.1014 -6.68399 -20.221
ltibia 30.0029
lfoot -35.0981 12.1376
ltoes -13.4993
223
root -44.2891 17.0216 13.2414 -166.832 83.6377 -170.003
lowerback -1.78773 -1.33214 5.4387
upperback 0.118708 -1.88233 -0.95129
thorax 0.918125 -0.912174 -4.0766
lowerneck -2.22114 7.12455 -0.635519
upperneck 1.77478 9.61998 -3.19654
head 1.0463 4.76973 -0.71852
rclavicle 2.37672e-014 -9.83984e-015
rhumerus -24.7075 -4.41897 -93.7718
rradius 28.4799
rwrist 13.9798
rhand 0.978425 -26.1272
rfingers 7.12502
rthumb 26.5272 -54.29
lclavicle 2.37672e-014 -9.83984e-015
lhumerus -36.6651 16.3834 84.9403
lradius 33.4866
lwrist -8.41773
lhand -15.375 15.8561
lfingers 7.12502
lthumb 10.8031 45.5583
rfemur -10.9135 0.382513 19.7788
rtibia 27.8176
rfoot -26.5888 -0.988882
rtoes -11.2618
lfemur -11.0797 -6.33342 -20.2884
ltibia 29.9484
lfoot -35.3112 11.9684
ltoes -13.4618
224
root -44.2632 17.0219 13.2309 -166.321 83.6173 -169.616
lowerback -1.67315 -1.3023 5.43638
upperback 0.101443 -1.83574 -0.915986
thorax 0.842386 -0.891533 -4.03434
lowerneck -2.22078 7.12721 -0.674758
upperneck 1.71259 9.61956 -3.11697
head 1.02018 4.77092 -0.689693
rclavicle 2.83889e-015 1.78906e-015
rhumerus -24.0028 -3.8523 -93.9658
rradius 29.322
rwrist 11.9285
rhand -0.508916 -26.5377
rfingers 7.12502
rthumb 25.1028 -54.9076
lclavicle 2.83889e-015 1.78906e-015
lhumerus -36.9227 16.6938 84.5817
lradius 33.3425
lwrist -8.6293
lhand -14.7791 15.9503
lfingers 7.12502
lthumb 11.3778 45.6217
rfemur -10.9307 0.389275 19.8122
rtibia 27.8093
rfoot -26.8768 -0.94003
rtoes -11.3566
lfemur -11.0735 -6.50656 -20.2878
ltibia 29.9086
lfoot -35.4223 12.3289
ltoes -13.5866
225
root -44.2362 17.0239 13.2217 -166.144 83.7654 -169.64
lowerback -1.57188 -1.21109 5.37702
upperback 0.0397473 -1.70519 -0.982037
thorax 0.735966 -0.830946 -4.06351
lowerneck -2.23759 7.10377 -0.474253
upperneck 1.72435 9.58067 -3.09288
head 1.0352 4.75208 -0.713771
rclavicle 5.91384e-015 5.56597e-015
rhumerus -23.3289 -3.63877 -94.269
rradius 30.3294
rwrist 10.3203
rhand -1.09539 -26.6703
rfingers 7.12502
rthumb 24.5408 -55.1176
lclavicle 5.91384e-015 5.56597e-015
lhumerus -37.1946 16.8574 84.1105
lradius 33.1674
lwrist -8.59868
lhand -14.3931 14.313
lfingers 7.12502
lthumb 11.7501 43.9635
rfemur -11.0516 0.684241 19.7608
rtibia 27.8177
rfoot -27.0327 -1.11254
rtoes -11.4275
lfemur -11.1616 -6.69748 -20.3668
ltibia 29.9232
lfoot -35.5362 12.8275
ltoes -13.6401
226
root -44.2065 17.0229 13.2116 -165.97 83.737 -169.571
lowerback -1.42656 -1.22733 5.4477
upperback 0.0283638 -1.71917 -1.04664
thorax 0.637111 -0.840876 -4.1665
lowerneck -2.26623 7.112 -0.553426
upperneck 1.67895 9.58286 -2.80901
head 1.00582 4.7556 -0.615583
rclavicle 2.08724e-015 -7.15625e-015
rhumerus -22.6779 -3.05247 -94.6348
rradius 31.4683
rwrist 8.54305
rhand -1.52037 -26.8193
rfingers 7.12502
rthumb 24.1334 -55.3214
lclavicle 2.08724e-015 -7.15625e-015
lhumerus -37.4671 17.32 83.5091
lradius 32.8838
lwrist -9.01323
lhand -15.727 16.1639
lfingers 7.12502
lthumb 10.4635 45.8835
rfemur -11.0316 0.816543 19.7753
rtibia 27.8153
rfoot -27.2449 -1.16639
rtoes -11.5231
lfemur -11.185 -6.68167 -20.3659
ltibia 29.9538
lfoot -35.72 12.9083
ltoes -13.7305
227
root -44.1732 17.0211 13.2018 -165.433 83.841 -169.171
lowerback -1.35016 -1.22763 5.40809
upperback 0.0399916 -1.71521 -0.988599
thorax 0.609596 -0.839592 -4.08214
lowerneck -2.38986 7.11116 -0.69333
upperneck 1.65794 9.58534 -2.73979
head 1.00904 4.75604 -0.56847
rclavicle -2.96562e-014 -2.38542e-015
rhumerus -22.0299 -1.80489 -95.0161
rradius 32.8175
rwrist 6.52666
rhand -1.734 -26.853
rfingers 7.12502
rthumb 23.9285 -55.3821
lclavicle -2.96562e-014 -2.38542e-015
lhumerus -37.7251 18.0009 83.0163
lradius 32.6254
lwrist -9.24749
lhand -16.2113 16.4619
lfingers 7.12502
lthumb 9.99631 46.2045
rfemur -11.0607 0.800556 19.7743
rtibia 27.8268
rfoot -27.4514 -1.03017
rtoes -11.3752
lfemur -11.1866 -6.54474 -20.3688
ltibia 29.9609
lfoot -35.8981 13.0339
ltoes -13.7065
228
root -44.1429 17.0181 13.1897 -164.84 83.8424 -168.701
lowerback -1.20966 -1.18981 5.45317
upperback 0.0450018 -1.6573 -1.03823
thorax 0.539584 -0.812467 -4.15484
lowerneck -2.40366 7.05036 -0.590502
upperneck 1.54946 9.49183 -2.5863
head 0.973119 4.71236 -0.541969
rclavicle -4.3596e-014 -4.96962e-015
rhumerus -21.3537 -0.94483 -95.3969
rradius 34.1815
rwrist 4.62708
rhand -1.66257 -27.0205
rfingers 7.12502
rthumb 23.997 -55.5406
lclavicle -4.3596e-014 -4.96962e-015
lhumerus -38.0017 18.2488 82.5033
lradius 32.4218
lwrist -9.75101
lhand -16.0611 16.2382
lfingers 7.12502
lthumb 10.1413 45.9738
rfemur -11.0841 0.812128 19.8035
rtibia 27.8348
rfoot -27.5924 -0.998754
rtoes -11.3851
lfemur -11.2042 -6.63626 -20.3514
ltibia 29.9966
lfoot -36.0628 13.3501
ltoes -13.6971
229
root -44.1054 17.0178 13.1781 -164.669 83.8204 -168.711
lowerback -1.26453 -1.14255 5.34662
upperback 0.0962232 -1.59724 -1.003
thorax 0.633787 -0.778859 -4.05976
lowerneck -2.4934 6.93969 -0.639638
upperneck 1.45018 9.34021 -2.46206
head 0.946388 4.63809 -0.498385
rclavicle 9.31803e-016 -1.61016e-014
rhumerus -20.6239 -0.253545 -95.5851
rradius 35.5767
rwrist 3.12907
rhand -2.1429 -27.2056
rfingers 7.12502
rthumb 23.5363 -55.7855
lclavicle 9.31803e-016 -1.61016e-014
lhumerus -38.2216 18.4955 82.1972
lradius 32.2448
lwrist -9.97143
lhand -16.3625 16.4403
lfingers 7.12502
lthumb 9.85045 46.1898
rfemur -11.1346 0.815107 19.7863
rtibia 27.8484
rfoot -27.7625 -1.01465
rtoes -11.5719
lfemur -11.2554 -6.63774 -20.3688
ltibia 30.0196
lfoot -36.2562 13.5276
ltoes -14.1481
230
root -44.0687 17.0169 13.1622 -163.855 83.8177 -168.052
lowerback -1.16973 -1.15261 5.44999
upperback 0.0944041 -1.60679 -0.990759
thorax 0.575223 -0.785055 -4.1031
lowerneck -2.58966 6.90168 -0.817826
upperneck 1.39241 9.2862 -2.15063
head 0.918657 4.61333 -0.375892
rclavicle -1.09704e-014 8.74653e-015
rhumerus -20.0529 0.917731 -95.8927
rradius 37.0564
rwrist 2.08463
rhand -2.54624 -27.4922
rfingers 7.12502
rthumb 23.1494 -56.1213
lclavicle -1.09704e-014 8.74653e-015
lhumerus -38.56 19.0911 81.6638
lradius 31.9971
lwrist -10.2068
lhand -16.5824 16.3501
lfingers 7.12502
lthumb 9.6383 46.1096
rfemur -11.1582 0.813595 19.8144
rtibia 27.8545
rfoot -27.9243 -0.979019
rtoes -11.6493
lfemur -11.2809 -6.50612 -20.3354
ltibia 30.0501
lfoot -36.4591 13.6706
ltoes -14.3888
231
root -44.0306 17.0163 13.1452 -164.007 83.7243 -168.392
lowerback -1.12896 -1.17497 5.44831
upperback 0.0924211 -1.63413 -1.00589
thorax 0.54686 -0.799628 -4.11706
lowerneck -2.58045 6.81638 -0.991753
upperneck 1.2113 9.16502 -1.8257
head 0.834607 4.55745 -0.258377
rclavicle 7.70291e-016 -4.77083e-015
rhumerus -19.4556 1.83384 -96.0934
rradius 38.5986
rwrist 0.867725
rhand -2.49803 -27.6648
rfingers 7.12502
rthumb 23.1956 -56.288
lclavicle 7.70291e-016 -4.77083e-015
lhumerus -38.9308 19.6607 81.0626
lradius 31.8898
lwrist -10.5272
lhand -16.419 16.3438
lfingers 7.12502
lthumb 9.79597 46.0959
rfemur -11.1967 0.567541 19.7495
rtibia 27.8377
rfoot -28.09 -0.806935
rtoes -11.6213
lfemur -11.357 -6.42515 -20.382
ltibia 30.091
lfoot -36.6211 13.69
ltoes -14.39
232
root -43.9892 17.0133 13.1299 -163.73 83.6566 -168.332
lowerback -1.14708 -1.15708 5.56913
upperback 0.113999 -1.61282 -1.13334
thorax 0.574721 -0.787245 -4.318
lowerneck -2.69087 6.67816 -0.901221
upperneck 1.08793 8.96815 -1.50202
head 0.801877 4.46307 -0.177671
rclavicle -1.95057e-014 -1.03368e-014
rhumerus -18.7621 2.37649 -96.4411
rradius 39.9755
rwrist 0.413869
rhand -2.49548 -27.739
rfingers 7.12502
rthumb 23.1981 -56.362
lclavicle -1.95057e-014 -1.03368e-014
lhumerus -39.1577 19.8894 80.4288
lradius 31.6247
lwrist -10.5491
lhand -17.2348 17.2601
lfingers 7.12502
lthumb 9.00879 47.0478
rfemur -11.2565 0.443898 19.7475
rtibia 27.8219
rfoot -28.2209 -0.779177
rtoes -11.6606
lfemur -11.4399 -6.60014 -20.3911
ltibia 30.1299
lfoot -36.695 14.0092
ltoes -13.7285
233
root -43.9463 17.0081 13.1157 -162.616 83.7016 -167.361
lowerback -1.06982 -1.12414 5.64925
upperback 0.131833 -1.5657 -1.16136
thorax 0.552328 -0.763674 -4.3903
lowerneck -2.71459 6.56268 -0.883315
upperneck 0.92717 8.80548 -1.2546
head 0.744204 4.38566 -0.112057
rclavicle -1.50082e-014 -9.34288e-015
rhumerus -18.2004 3.09746 -96.6797
rradius 41.4272
rwrist -0.232371
rhand -2.27232 -27.5924
rfingers 7.12502
rthumb 23.4122 -56.1882
lclavicle -1.50082e-014 -9.34288e-015
lhumerus -39.5618 20.3286 79.8032
lradius 31.5182
lwrist -10.8494
lhand -17.3501 17.7809
lfingers 7.12502
lthumb 8.89754 47.5733
rfemur -11.2379 0.601235 19.8072
rtibia 27.7877
rfoot -28.3351 -0.786603
rtoes -11.4359
lfemur -11.4234 -6.5475 -20.3307
ltibia 30.1774
lfoot -36.8196 14.3081
ltoes -13.7997
